<svg xmlns="http://www.w3.org/2000/svg" width="512" height="512" viewBox="0 0 512 512">
  <defs>
    <linearGradient id="sky" x1="0" y1="0" x2="0" y2="1">
      <stop offset="0" stop-color="#1a3a5c"/><stop offset="1" stop-color="#0d1117"/>
    </linearGradient>
    <linearGradient id="glow" x1="0" y1="0" x2="0" y2="1">
      <stop offset="0" stop-color="#d29922"/><stop offset="1" stop-color="#8c5a1a"/>
    </linearGradient>
  </defs>
  <rect width="512" height="512" fill="url(#sky)"/>
  <circle cx="420" cy="88" r="28" fill="#e6edf3" opacity=".92"/>
  <rect x="40" y="118" width="432" height="38" rx="8" fill="#0a0d12"/>
  <rect x="64" y="156" width="384" height="244" fill="#e9ddc6"/>
  <path d="M96 400 v-116 a72 72 0 0 1 144 0 v116 z" fill="url(#glow)"/>
  <path d="M272 400 v-116 a72 72 0 0 1 144 0 v116 z" fill="url(#glow)"/>
  <rect x="64" y="296" width="32" height="104" fill="#9c4f33"/>
  <rect x="240" y="296" width="32" height="104" fill="#9c4f33"/>
  <rect x="416" y="296" width="32" height="104" fill="#9c4f33"/>
  <rect x="0" y="400" width="512" height="112" fill="#7a4630"/>
  <rect x="0" y="400" width="512" height="10" fill="#5c3423"/>
</svg>
